<svg xmlns="http://www.w3.org/2000/svg" width="16" height="16" viewBox="0 0 16 16"><path d="M2 4.75C2 3.784 2.784 3 3.75 3h6.5c.966 0 1.75.784 1.75 1.75v6.5A1.75 1.75 0 0 1 10.25 13h-6.5A1.75 1.75 0 0 1 2 11.25Zm1.75-.25a.25.25 0 0 0-.25.25v6.5c0 .138.112.25.25.25h6.5a.25.25 0 0 0 .25-.25v-6.5a.25.25 0 0 0-.25-.25Zm2-2.5A1.75 1.75 0 0 1 7.5.25h4.75A3.75 3.75 0 0 1 16 4v4.75a1.75 1.75 0 0 1-1.75 1.75.75.75 0 0 1 0-1.5.25.25 0 0 0 .25-.25V4a2.25 2.25 0 0 0-2.25-2.25H7.5a.25.25 0 0 0-.25.25.75.75 0 0 1-1.5 0Z"/></svg>
