<svg xmlns="http://www.w3.org/2000/svg" width="16" height="16" viewBox="0 0 16 16"><path d="M8.88 2.75a2.25 2.25 0 0 1 4.24 0h1.13a.75.75 0 0 1 0 1.5h-1.13a2.25 2.25 0 0 1-4.24 0H1.75a.75.75 0 0 1 0-1.5ZM11 2.25a.75.75 0 1 0 0 1.5.75.75 0 0 0 0-1.5ZM2.88 7.25a2.25 2.25 0 0 1 4.24 0h7.13a.75.75 0 0 1 0 1.5H7.12a2.25 2.25 0 0 1-4.24 0H1.75a.75.75 0 0 1 0-1.5ZM5 6.75a.75.75 0 1 0 0 1.5.75.75 0 0 0 0-1.5Zm3.88 5a2.25 2.25 0 0 1 4.24 0h1.13a.75.75 0 0 1 0 1.5h-1.13a2.25 2.25 0 0 1-4.24 0H1.75a.75.75 0 0 1 0-1.5Zm2.12-.5a.75.75 0 1 0 0 1.5.75.75 0 0 0 0-1.5Z"/></svg>
